<svg width="28" height="36" viewBox="0 0 28 36" fill="none" xmlns="http://www.w3.org/2000/svg">
    <path d="M16.25 9.5625V0H2.1875C1.20312 0 0.5 0.773438 0.5 1.6875V34.3125C0.5 35.2969 1.20312 36 2.1875 36H25.8125C26.7266 36 27.5 35.2969 27.5 34.3125V11.25H17.9375C16.9531 11.25 16.25 10.5469 16.25 9.5625ZM20.75 26.1562C20.75 26.6484 20.3281 27 19.9062 27H8.09375C7.60156 27 7.25 26.6484 7.25 26.1562V25.5938C7.25 25.1719 7.60156 24.75 8.09375 24.75H19.9062C20.3281 24.75 20.75 25.1719 20.75 25.5938V26.1562ZM20.75 21.6562C20.75 22.1484 20.3281 22.5 19.9062 22.5H8.09375C7.60156 22.5 7.25 22.1484 7.25 21.6562V21.0938C7.25 20.6719 7.60156 20.25 8.09375 20.25H19.9062C20.3281 20.25 20.75 20.6719 20.75 21.0938V21.6562ZM20.75 16.5938V17.1562C20.75 17.6484 20.3281 18 19.9062 18H8.09375C7.60156 18 7.25 17.6484 7.25 17.1562V16.5938C7.25 16.1719 7.60156 15.75 8.09375 15.75H19.9062C20.3281 15.75 20.75 16.1719 20.75 16.5938ZM27.5 8.57812C27.5 8.15625 27.2891 7.73438 27.0078 7.38281L20.1172 0.492188C19.7656 0.210938 19.3438 0 18.9219 0H18.5V9H27.5V8.57812Z" fill="white"/>
</svg>
