<svg width="255" height="29" viewBox="0 0 255 29" fill="none" xmlns="http://www.w3.org/2000/svg">
    <mask id="mask0_807_1473" style="mask-type:alpha" maskUnits="userSpaceOnUse" x="80" y="0" width="73" height="19">
        <path fill-rule="evenodd" clip-rule="evenodd"
              d="M83.8981 2.61055L86.1763 0H93.5256V18.5312H90.8064V2.61055H83.8981ZM80.3337 6.72861V18.5312H83.0162V3.6033L80.3337 6.72861ZM106.277 1.83842C105.211 0.588293 103.741 0 101.867 0H95.069V18.5312H97.7515V12.3542H101.83C103.704 12.3542 105.174 11.7291 106.24 10.5157C107.306 9.30239 107.82 7.86843 107.82 6.17708C107.82 4.48574 107.342 3.08854 106.277 1.83842ZM104.329 8.67733C103.741 9.37593 102.933 9.70684 101.867 9.70684H97.7882V2.68409H101.867C102.933 2.68409 103.741 3.05177 104.329 3.75037C104.917 4.44897 105.211 5.25787 105.211 6.21385C105.211 7.16983 104.917 7.97873 104.329 8.67733ZM120.35 18.5312H123.033V0H120.975L111.935 13.0528V0H109.29V18.5312H111.421L120.35 5.58879V18.5312ZM127.222 7.83166V0H124.54V18.5312H127.222V10.479H135.049V18.5312H137.768V0H135.049V7.83166H127.222ZM144.309 18.5312H146.991V2.53702H152.54V0H138.687V2.53702H144.309V18.5312Z"
              fill="#010201"/>
    </mask>
    <g mask="url(#mask0_807_1473)">
        <path fill-rule="evenodd" clip-rule="evenodd"
              d="M83.8981 2.61055L86.1763 0H93.5256V18.5312H90.8064V2.61055H83.8981ZM80.3337 6.72861V18.5312H83.0162V3.6033L80.3337 6.72861ZM106.277 1.83842C105.211 0.588293 103.741 0 101.867 0H95.069V18.5312H97.7515V12.3542H101.83C103.704 12.3542 105.174 11.7291 106.24 10.5157C107.306 9.30239 107.82 7.86843 107.82 6.17708C107.82 4.48574 107.342 3.08854 106.277 1.83842ZM104.329 8.67733C103.741 9.37593 102.933 9.70684 101.867 9.70684H97.7882V2.68409H101.867C102.933 2.68409 103.741 3.05177 104.329 3.75037C104.917 4.44897 105.211 5.25787 105.211 6.21385C105.211 7.16983 104.917 7.97873 104.329 8.67733ZM120.35 18.5312H123.033V0H120.975L111.935 13.0528V0H109.29V18.5312H111.421L120.35 5.58879V18.5312ZM127.222 7.83166V0H124.54V18.5312H127.222V10.479H135.049V18.5312H137.768V0H135.049V7.83166H127.222ZM144.309 18.5312H146.991V2.53702H152.54V0H138.687V2.53702H144.309V18.5312Z"
              fill="#010201"/>
        <path d="M150.496 0H152.633V18.5313H150.496V0Z" fill="#6F1362"/>
        <path d="M150.496 0H149.072V18.5313H150.496V0Z" fill="#B10730"/>
        <path d="M148.359 0H149.072V18.5313H148.359V0Z" fill="#BC0725"/>
        <path d="M148.36 0H145.866V18.5313H148.36V0Z" fill="#CD0928"/>
        <path d="M141.593 0H145.866V18.5313H141.593V0Z" fill="#DA0A2C"/>
        <path d="M141.593 0H138.031V18.5313H141.593V0Z" fill="#D80E56"/>
        <path d="M135.894 0H138.031V18.5313H135.894V0Z" fill="#DF126F"/>
        <path d="M135.894 0H133.401V18.5313H135.894V0Z" fill="#D20F62"/>
        <path d="M131.977 0H133.401V18.5313H131.977V0Z" fill="#DD0F60"/>
        <path d="M131.977 0H131.264V18.5313H131.977V0Z" fill="#D90C3E"/>
        <path d="M129.84 0H131.264V18.5313H129.84V0Z" fill="#DE2D30"/>
        <path d="M129.84 0H127.703V18.5313H129.84V0Z" fill="#E45B2C"/>
        <path d="M126.278 0H127.703V18.5313H126.278V0Z" fill="#E97F2C"/>
        <path d="M126.278 0H123.429V18.5313H126.278V0Z" fill="#DA0A2C"/>
        <path d="M119.511 0H123.429V18.5313H119.511V0Z" fill="#D24829"/>
        <path d="M119.511 0H118.799V18.5313H119.511V0Z" fill="#F1B42A"/>
        <path d="M115.593 0H118.799V18.5313H115.593V0Z" fill="#E27C29"/>
        <path d="M115.593 0H111.319V18.5313H115.593V0Z" fill="#DD402A"/>
        <path d="M107.402 0H111.319V18.5313H107.402V0Z" fill="#F4CF2F"/>
        <path d="M107.402 0H105.265V18.5313H107.402V0Z" fill="#F4CF2F"/>
        <path d="M103.128 0H105.265V18.5313H103.128V0Z" fill="#DF472A"/>
        <path d="M103.128 0H101.703V18.5313H103.128V0Z" fill="#F1B42A"/>
        <path d="M97.0731 0H101.703V18.5313H97.0731V0Z" fill="#DE312A"/>
        <path d="M97.0732 0H94.9363V18.5313H97.0732V0Z" fill="#608937"/>
        <path d="M94.224 0H94.9363V18.5313H94.224V0Z" fill="#0F7E39"/>
        <path d="M94.2238 0H91.3745V18.5313H94.2238V0Z" fill="#0F7E39"/>
        <path d="M90.6622 0H91.3745V18.5313H90.6622V0Z" fill="#0B694A"/>
        <path d="M90.6623 0H88.5254V18.5313H90.6623V0Z" fill="#1B7DB6"/>
        <path d="M87.1008 0H88.5254V18.5313H87.1008V0Z" fill="#168CC9"/>
        <path d="M87.1007 0H86.0322V18.5313H87.1007V0Z" fill="#0F6DA6"/>
        <path d="M83.8953 0H86.0322V18.5313H83.8953V0Z" fill="#324786"/>
        <path d="M83.8953 0H80.3337V18.5313H83.8953V0Z" fill="#3E2776"/>
    </g>
    <path d="M0 21.0873H1.17564V27.8728H3.72469V21.0873H4.88934V27.8728H7.43839V21.0873H8.61403V28.8995H0V21.0873Z"
          fill="white"/>
    <path d="M15.5978 28.8995H14.4881V23.4421L10.7744 28.8995H9.89542V21.0873H10.9942V26.5893L14.7408 21.0873H15.5978V28.8995Z"
          fill="white"/>
    <path d="M16.8358 21.0873H19.6485C20.4323 21.0873 21.0439 21.3477 21.4834 21.8685C21.9229 22.3819 22.1426 22.992 22.1426 23.6988C22.1426 24.4056 21.9229 25.0157 21.4834 25.5291C21.0439 26.0425 20.4323 26.2992 19.6485 26.2992H17.9565V28.8995H16.8358V21.0873ZM17.9565 25.1831H19.6485C20.088 25.1831 20.4286 25.038 20.6703 24.7479C20.9194 24.4577 21.0439 24.1117 21.0439 23.71C21.0439 23.3082 20.9194 22.9622 20.6703 22.672C20.4286 22.3744 20.088 22.2256 19.6485 22.2256H17.9565V25.1831Z"
          fill="white"/>
    <path d="M29.0325 27.0134C29.5746 26.448 29.8456 25.7746 29.8456 24.9934C29.8456 24.2122 29.5746 23.5388 29.0325 22.9734C28.4758 22.4079 27.8129 22.1252 27.0438 22.1252C26.2747 22.1252 25.6191 22.4079 25.0771 22.9734C24.5277 23.5314 24.2531 24.2047 24.2531 24.9934C24.2531 25.7821 24.5277 26.4554 25.0771 27.0134C25.6191 27.5789 26.2747 27.8616 27.0438 27.8616C27.8129 27.8616 28.4758 27.5789 29.0325 27.0134ZM24.275 27.817C23.5132 27.0209 23.1324 26.0797 23.1324 24.9934C23.1324 23.9071 23.5132 22.9659 24.275 22.1698C25.0368 21.3812 25.9598 20.9868 27.0438 20.9868C28.1206 20.9868 29.0472 21.3812 29.8236 22.1698C30.5854 22.9659 30.9663 23.9071 30.9663 24.9934C30.9663 26.0797 30.5854 27.0209 29.8236 27.817C29.0618 28.6056 28.1352 29 27.0438 29C25.9524 29 25.0295 28.6056 24.275 27.817Z"
          fill="white"/>
    <path d="M32.1582 21.0873H33.2789V28.8995H32.1582V21.0873ZM33.4876 25.2836V24.7144L36.2015 21.0873H37.5639L34.6303 24.9711L37.8715 28.8995H36.4212L33.4876 25.2836Z"
          fill="white"/>
    <path d="M43.8074 27.0134C44.3495 26.448 44.6205 25.7746 44.6205 24.9934C44.6205 24.2122 44.3495 23.5388 43.8074 22.9734C43.2507 22.4079 42.5878 22.1252 41.8187 22.1252C41.0496 22.1252 40.394 22.4079 39.852 22.9734C39.3026 23.5314 39.028 24.2047 39.028 24.9934C39.028 25.7821 39.3026 26.4554 39.852 27.0134C40.394 27.5789 41.0496 27.8616 41.8187 27.8616C42.5878 27.8616 43.2507 27.5789 43.8074 27.0134ZM39.0499 27.817C38.2881 27.0209 37.9072 26.0797 37.9072 24.9934C37.9072 23.9071 38.2881 22.9659 39.0499 22.1698C39.8117 21.3812 40.7346 20.9868 41.8187 20.9868C42.8955 20.9868 43.8221 21.3812 44.5985 22.1698C45.3603 22.9659 45.7412 23.9071 45.7412 24.9934C45.7412 26.0797 45.3603 27.0209 44.5985 27.817C43.8367 28.6056 42.9101 29 41.8187 29C40.7273 29 39.8044 28.6056 39.0499 27.817Z"
          fill="white"/>
    <path d="M50.2157 21.7904V21.0538H51.3254V21.7904C52.3509 21.835 53.1529 22.1661 53.7316 22.7836C54.3103 23.4012 54.5996 24.1266 54.5996 24.9599C54.5996 25.8007 54.3066 26.5335 53.7206 27.1585C53.142 27.7761 52.3435 28.1109 51.3254 28.163V28.8995H50.2157V28.1741C49.6883 28.1518 49.2122 28.0476 48.7873 27.8616C48.3625 27.6682 48.0145 27.4226 47.7435 27.125C47.4798 26.8274 47.2784 26.4963 47.1392 26.1318C47.0001 25.7597 46.9305 25.3766 46.9305 24.9822C46.9305 24.1415 47.2198 23.4123 47.7985 22.7948C48.3771 22.1698 49.1829 21.835 50.2157 21.7904ZM51.3034 22.7725V27.2032C51.9993 27.1511 52.5376 26.9316 52.9185 26.5447C53.2994 26.1504 53.4899 25.6333 53.4899 24.9934C53.4899 24.3535 53.2958 23.8364 52.9076 23.4421C52.5267 23.0478 51.9919 22.8246 51.3034 22.7725ZM48.0402 24.9711C48.0402 25.5961 48.2343 26.1169 48.6225 26.5335C49.0181 26.9427 49.5564 27.166 50.2376 27.2032V22.7725C49.5418 22.8022 48.9997 23.018 48.6115 23.4198C48.2306 23.8141 48.0402 24.3312 48.0402 24.9711Z"
          fill="white"/>
    <path d="M61.5759 27.0134C62.118 26.448 62.389 25.7746 62.389 24.9934C62.389 24.2122 62.118 23.5388 61.5759 22.9734C61.0192 22.4079 60.3563 22.1252 59.5872 22.1252C58.8181 22.1252 58.1625 22.4079 57.6205 22.9734C57.0711 23.5314 56.7965 24.2047 56.7965 24.9934C56.7965 25.7821 57.0711 26.4554 57.6205 27.0134C58.1625 27.5789 58.8181 27.8616 59.5872 27.8616C60.3563 27.8616 61.0192 27.5789 61.5759 27.0134ZM56.8184 27.817C56.0566 27.0209 55.6758 26.0797 55.6758 24.9934C55.6758 23.9071 56.0566 22.9659 56.8184 22.1698C57.5802 21.3812 58.5031 20.9868 59.5872 20.9868C60.664 20.9868 61.5906 21.3812 62.367 22.1698C63.1288 22.9659 63.5097 23.9071 63.5097 24.9934C63.5097 26.0797 63.1288 27.0209 62.367 27.817C61.6052 28.6056 60.6786 29 59.5872 29C58.4958 29 57.5729 28.6056 56.8184 27.817Z"
          fill="white"/>
    <path d="M64.6906 21.0873H67.5033C68.2871 21.0873 68.8987 21.3477 69.3382 21.8685C69.7777 22.3819 69.9974 22.992 69.9974 23.6988C69.9974 24.4056 69.7777 25.0157 69.3382 25.5291C68.8987 26.0425 68.2871 26.2992 67.5033 26.2992H65.8113V28.8995H64.6906V21.0873ZM65.8113 25.1831H67.5033C67.9428 25.1831 68.2834 25.038 68.5251 24.7479C68.7742 24.4577 68.8987 24.1117 68.8987 23.71C68.8987 23.3082 68.7742 22.9622 68.5251 22.672C68.2834 22.3744 67.9428 22.2256 67.5033 22.2256H65.8113V25.1831Z"
          fill="white"/>
    <path d="M72.1628 23.3975V28.8995H71.0531V21.0873H71.954L74.4921 24.8818L77.0301 21.0873H77.9091V28.8995H76.8104V23.3975L74.7997 26.4331H74.1734L72.1628 23.3975Z"
          fill="white"/>
    <path d="M82.2739 22.7836L81.1202 25.8639H83.4276L82.2739 22.7836ZM84.5703 28.8995L83.8341 26.9241H80.7137L79.9666 28.8995H78.769L81.8564 20.9868H82.6694L85.7569 28.8995H84.5703Z"
          fill="white"/>
    <path d="M88.8965 28.8995H87.7868V22.1587H85.4575V21.0873H91.2148V22.1587H88.8965V28.8995Z" fill="white"/>
    <path d="M93.1814 21.0873V24.3907H96.4336V21.0873H97.5543V28.8995H96.4336V25.5068H93.1814V28.8995H92.0716V21.0873H93.1814Z"
          fill="white"/>
    <path d="M101.834 22.7836L100.681 25.8639H102.988L101.834 22.7836ZM104.131 28.8995L103.394 26.9241H100.274L99.5269 28.8995H98.3293L101.417 20.9868H102.23L105.317 28.8995H104.131Z"
          fill="white"/>
    <path d="M109.855 24.9376V25.4733L107.053 28.8995H105.614L108.042 25.9644C107.412 25.8527 106.921 25.5737 106.57 25.1273C106.225 24.6735 106.053 24.1564 106.053 23.576C106.053 22.9064 106.273 22.3261 106.713 21.835C107.152 21.3365 107.767 21.0873 108.558 21.0873H111.36V28.8995H110.25V22.2256H108.558C108.119 22.2256 107.775 22.3595 107.526 22.6274C107.284 22.8952 107.163 23.2115 107.163 23.576C107.163 23.948 107.284 24.268 107.526 24.5358C107.775 24.8037 108.119 24.9376 108.558 24.9376H109.855Z"
          fill="white"/>
    <path d="M115.248 21.0873H120.731V28.8995H119.599V22.1921H116.369V28.8995H115.248V21.0873Z" fill="white"/>
    <path d="M122.956 25.5514V27.7723H126.527V28.8995H121.835V21.0873H126.516V22.2145H122.956V24.4131H126.439V25.5514H122.956Z"
          fill="white"/>
    <path d="M132.631 21.0873V28.8995H131.521V26.0871C131.184 26.1838 130.829 26.2322 130.456 26.2322C129.635 26.2322 128.943 26.0239 128.379 25.6072C127.815 25.1906 127.533 24.5693 127.533 23.7434V21.0873H128.676V23.7434C128.676 24.2047 128.855 24.5656 129.214 24.826C129.573 25.079 129.998 25.2054 130.489 25.2054C130.804 25.2054 131.148 25.1534 131.521 25.0492V21.0873H132.631Z"
          fill="white"/>
    <path d="M137.21 22.7836L136.057 25.8639H138.364L137.21 22.7836ZM139.507 28.8995L138.771 26.9241H135.65L134.903 28.8995H133.705L136.793 20.9868H137.606L140.693 28.8995H139.507Z"
          fill="white"/>
    <path d="M143.833 28.8995H142.723V22.1587H140.394V21.0873H146.151V22.1587H143.833V28.8995Z" fill="white"/>
    <path d="M150.046 28.8995H147.233V21.0873H148.354V23.6876H150.046C150.83 23.6876 151.441 23.9443 151.881 24.4577C152.32 24.9711 152.54 25.5812 152.54 26.288C152.54 26.9948 152.32 27.6087 151.881 28.1295C151.441 28.6428 150.83 28.8995 150.046 28.8995ZM150.046 24.8037H148.354V27.7835H150.046C150.485 27.7835 150.826 27.6347 151.068 27.3371C151.317 27.0395 151.441 26.6861 151.441 26.2768C151.441 25.8751 151.317 25.5291 151.068 25.2389C150.826 24.9488 150.485 24.8037 150.046 24.8037Z"
          fill="white"/>
    <path fill-rule="evenodd" clip-rule="evenodd"
          d="M76.6603 2.72401C78.2723 4.37284 79.1678 6.30842 79.3111 8.53076L75.908 12.4736C76.4453 11.5058 76.7319 10.4305 76.7319 9.28348C76.7319 7.49128 76.0871 5.91413 74.8333 4.62375C73.5437 3.33336 71.9675 2.65232 70.1764 2.65232C68.3852 2.65232 66.8449 3.29752 65.5553 4.62375C64.2657 5.91413 63.6208 7.45543 63.6208 9.28348C63.6208 11.1115 64.2657 12.6528 65.5553 13.9432C66.8449 15.2336 68.3494 15.9146 70.1764 15.9146C71.6809 15.9146 72.9705 15.4845 74.1169 14.5884L70.6779 18.5313C70.4988 18.5313 70.3197 18.5313 70.1406 18.5313C67.5613 18.5313 65.412 17.6352 63.6567 15.8071C61.8655 13.9791 60.97 11.7926 60.97 9.28348C60.97 6.77439 61.8655 4.5879 63.6567 2.75985C65.4478 0.931804 67.5972 0.0357019 70.1406 0.0357019C72.6481 -0.000142172 74.8333 0.89596 76.6603 2.72401Z"
          fill="white"/>
    <path fill-rule="evenodd" clip-rule="evenodd"
          d="M25.9714 0H24.0728L16.8367 18.2805H19.6308L21.3861 13.7283H28.6939L30.4492 18.2805H33.2434L25.9714 0ZM22.3533 11.2909L25.0759 4.15792L27.7984 11.2909H22.3533Z"
          fill="white"/>
    <path fill-rule="evenodd" clip-rule="evenodd"
          d="M2.61505 18.2803V5.59146L7.3078 12.5811H8.81235L13.5051 5.59146V18.2803H16.0843V0.214844H14.0424L8.06007 8.99665L2.11353 0.214844H0V18.2803H2.61505Z"
          fill="white"/>
    <path d="M36.3599 0.214844H33.7449V18.2803H36.3599V0.214844Z" fill="white"/>
    <path fill-rule="evenodd" clip-rule="evenodd"
          d="M36.8613 9.9286V8.60236L43.2377 0.214844H46.426L39.548 9.21171L47.1424 18.2803H43.7393L36.8613 9.9286Z"
          fill="white"/>
    <path fill-rule="evenodd" clip-rule="evenodd"
          d="M58.3908 2.04318C57.3519 0.824482 55.919 0.250977 54.0921 0.250977H47.5007V18.2806H50.1158V12.2946H54.0921C55.919 12.2946 57.3519 11.6852 58.3908 10.5024C59.4296 9.31953 59.9312 7.92161 59.9312 6.27279C59.9312 4.62396 59.3938 3.22604 58.3908 2.04318ZM56.4564 8.71019C55.8832 9.39122 55.0951 9.71382 54.0563 9.71382H50.08V2.8676H54.0563C55.0951 2.8676 55.8832 3.22604 56.4564 3.90708C57.0295 4.58811 57.3161 5.37668 57.3161 6.30863C57.3161 7.24058 57.0654 8.02915 56.4564 8.71019Z"
          fill="white"/>
</svg>
