<svg width="100" height="100" viewBox="0 0 100 100" fill="none" xmlns="http://www.w3.org/2000/svg">
    <path fill-rule="evenodd" clip-rule="evenodd" d="M50 100C77.6142 100 100 77.6142 100 50C100 22.3858 77.6142 0 50 0C22.3858 0 0 22.3858 0 50C0 77.6142 22.3858 100 50 100Z" fill="#001A31" fill-opacity="0.8"/>
    <path fill-rule="evenodd" clip-rule="evenodd" d="M35.125 42.396C35.125 42.916 35.157 43.531 35.223 44.243C35.482 46.64 36.215 49.248 37.42 52.066C38.624 54.884 40.072 57.556 41.766 60.083C43.458 62.61 44.906 64.667 46.111 66.254C47.315 67.842 48.504 69.315 49.676 70.675C50.782 69.315 51.922 67.842 53.094 66.254C54.266 64.667 55.697 62.61 57.391 60.083C59.083 57.556 60.499 54.884 61.639 52.066C62.777 49.248 63.478 46.64 63.738 44.243C63.868 43.531 63.934 42.916 63.934 42.396C63.934 38.445 62.518 35.076 59.686 32.29C56.854 29.504 53.451 28.111 49.48 28.111C45.509 28.111 42.123 29.504 39.324 32.29C36.524 35.076 35.125 38.445 35.125 42.396ZM46.844 72.182C45.867 71.049 44.613 69.478 43.084 67.468C41.554 65.461 40.023 63.258 38.494 60.861C36.964 58.464 35.597 55.792 34.393 52.843C33.188 49.896 32.455 47.158 32.195 44.631C32.064 43.854 32 43.11 32 42.396C32 37.602 33.709 33.504 37.127 30.103C40.545 26.702 44.679 25 49.529 25C54.378 25 58.514 26.702 61.932 30.103C65.35 33.504 67.059 37.602 67.059 42.396C67.059 43.044 66.993 43.756 66.863 44.534C66.603 47.126 65.853 49.913 64.617 52.892C63.38 55.873 62.078 58.479 60.711 60.714C59.344 62.95 57.797 65.218 56.072 67.517C54.347 69.818 53.158 71.356 52.508 72.133C51.856 72.911 51.336 73.494 50.945 73.882C50.685 74.141 50.424 74.369 50.164 74.563C49.969 74.626 49.806 74.66 49.676 74.66C49.545 74.66 49.383 74.626 49.188 74.563C48.861 74.369 48.602 74.141 48.406 73.882C48.341 73.882 47.82 73.315 46.844 72.182ZM44.5 42.445C44.5 43.838 44.988 45.02 45.965 45.992C46.941 46.963 48.128 47.45 49.529 47.45C50.929 47.45 52.117 46.963 53.094 45.992C54.07 45.02 54.559 43.838 54.559 42.445C54.559 41.052 54.07 39.87 53.094 38.898C52.117 37.926 50.929 37.44 49.529 37.44C48.128 37.44 46.941 37.926 45.965 38.898C44.988 39.87 44.5 41.052 44.5 42.445ZM41.375 42.445C41.375 40.209 42.172 38.299 43.768 36.711C45.362 35.125 47.283 34.331 49.529 34.331C51.775 34.331 53.695 35.125 55.291 36.711C56.886 38.299 57.684 40.209 57.684 42.445C57.684 44.68 56.886 46.591 55.291 48.178C53.695 49.767 51.775 50.559 49.529 50.559C47.283 50.559 45.362 49.767 43.768 48.178C42.172 46.591 41.375 44.68 41.375 42.445Z" fill="white"/>
</svg>
