<svg width="800" height="152" viewBox="0 0 800 152" fill="none" xmlns="http://www.w3.org/2000/svg">
    <mask id="mask0_728_1758" style="mask-type:alpha" maskUnits="userSpaceOnUse" x="421" y="0" width="379" height="98">
        <path fill-rule="evenodd" clip-rule="evenodd"
              d="M440.006 13.6829L451.954 0H490.497V97.1292H476.236V13.6829H440.006ZM421.312 35.2671V97.1291H435.381V18.8862L421.312 35.2671ZM557.37 9.63583C551.781 3.08346 544.073 0 534.244 0H498.592V97.1292H512.66V64.7528H534.052C543.88 64.7528 551.589 61.4766 557.178 55.1169C562.766 48.7573 565.464 41.2413 565.464 32.3764C565.464 23.5114 562.959 16.1882 557.37 9.63583ZM547.156 45.4811C544.073 49.1427 539.833 50.8772 534.244 50.8772H512.853V14.0683H534.244C539.833 14.0683 544.073 15.9955 547.156 19.6571C550.24 23.3187 551.781 27.5585 551.781 32.5691C551.781 37.5797 550.24 41.8195 547.156 45.4811ZM631.18 97.1292H645.248V0H634.456L587.048 68.4144V0H573.172V97.1292H584.35L631.18 29.2929V97.1292ZM667.219 41.0486V0H653.151V97.1292H667.219V54.9242H708.268V97.1292H722.529V0H708.268V41.0486H667.219ZM756.831 97.1292H770.9V13.2974H800V0H727.346V13.2974H756.831V97.1292Z"
              fill="#010201"/>
    </mask>
    <g mask="url(#mask0_728_1758)">
        <path fill-rule="evenodd" clip-rule="evenodd"
              d="M440.006 13.6829L451.954 0H490.497V97.1292H476.236V13.6829H440.006ZM421.312 35.2671V97.1291H435.381V18.8862L421.312 35.2671ZM557.37 9.63583C551.781 3.08346 544.073 0 534.244 0H498.592V97.1292H512.66V64.7528H534.052C543.88 64.7528 551.589 61.4766 557.178 55.1169C562.766 48.7573 565.464 41.2413 565.464 32.3764C565.464 23.5114 562.959 16.1882 557.37 9.63583ZM547.156 45.4811C544.073 49.1427 539.833 50.8772 534.244 50.8772H512.853V14.0683H534.244C539.833 14.0683 544.073 15.9955 547.156 19.6571C550.24 23.3187 551.781 27.5585 551.781 32.5691C551.781 37.5797 550.24 41.8195 547.156 45.4811ZM631.18 97.1292H645.248V0H634.456L587.048 68.4144V0H573.172V97.1292H584.35L631.18 29.2929V97.1292ZM667.219 41.0486V0H653.151V97.1292H667.219V54.9242H708.268V97.1292H722.529V0H708.268V41.0486H667.219ZM756.831 97.1292H770.9V13.2974H800V0H727.346V13.2974H756.831V97.1292Z"
              fill="#010201"/>
        <path d="M789.283 0H800.49V97.1293H789.283V0Z" fill="#6F1362"/>
        <path d="M789.283 0H781.811V97.1293H789.283V0Z" fill="#B10730"/>
        <path d="M778.076 0H781.811V97.1293H778.076V0Z" fill="#BC0725"/>
        <path d="M778.075 0H765V97.1293H778.075V0Z" fill="#CD0928"/>
        <path d="M742.586 0H765V97.1293H742.586V0Z" fill="#DA0A2C"/>
        <path d="M742.586 0H723.907V97.1293H742.586V0Z" fill="#D80E56"/>
        <path d="M712.7 0H723.907V97.1293H712.7V0Z" fill="#DF126F"/>
        <path d="M712.7 0H699.625V97.1293H712.7V0Z" fill="#D20F62"/>
        <path d="M692.154 0H699.625V97.1293H692.154V0Z" fill="#DD0F60"/>
        <path d="M692.153 0H688.418V97.1293H692.153V0Z" fill="#D90C3E"/>
        <path d="M680.946 0H688.418V97.1293H680.946V0Z" fill="#DE2D30"/>
        <path d="M680.946 0H669.739V97.1293H680.946V0Z" fill="#E45B2C"/>
        <path d="M662.268 0H669.739V97.1293H662.268V0Z" fill="#E97F2C"/>
        <path d="M662.268 0H647.325V97.1293H662.268V0Z" fill="#DA0A2C"/>
        <path d="M626.778 0H647.325V97.1293H626.778V0Z" fill="#D24829"/>
        <path d="M626.778 0H623.042V97.1293H626.778V0Z" fill="#F1B42A"/>
        <path d="M606.231 0H623.042V97.1293H606.231V0Z" fill="#E27C29"/>
        <path d="M606.231 0H583.817V97.1293H606.231V0Z" fill="#DD402A"/>
        <path d="M563.27 0H583.817V97.1293H563.27V0Z" fill="#F4CF2F"/>
        <path d="M563.27 0H552.063V97.1293H563.27V0Z" fill="#F4CF2F"/>
        <path d="M540.856 0H552.063V97.1293H540.856V0Z" fill="#DF472A"/>
        <path d="M540.856 0H533.385V97.1293H540.856V0Z" fill="#F1B42A"/>
        <path d="M509.102 0H533.385V97.1293H509.102V0Z" fill="#DE312A"/>
        <path d="M509.102 0H497.895V97.1293H509.102V0Z" fill="#608937"/>
        <path d="M494.159 0H497.895V97.1293H494.159V0Z" fill="#0F7E39"/>
        <path d="M494.159 0H479.216V97.1293H494.159V0Z" fill="#0F7E39"/>
        <path d="M475.48 0H479.216V97.1293H475.48V0Z" fill="#0B694A"/>
        <path d="M475.481 0H464.273V97.1293H475.481V0Z" fill="#1B7DB6"/>
        <path d="M456.802 0H464.273V97.1293H456.802V0Z" fill="#168CC9"/>
        <path d="M456.802 0H451.198V97.1293H456.802V0Z" fill="#0F6DA6"/>
        <path d="M439.991 0H451.198V97.1293H439.991V0Z" fill="#324786"/>
        <path d="M439.991 0H421.312V97.1293H439.991V0Z" fill="#3E2776"/>
    </g>
    <path d="M0 110.526H6.16567V146.092H19.5342V110.526H25.6423V146.092H39.0108V110.526H45.1765V151.474H0V110.526Z"
          fill="#001A31"/>
    <path d="M81.8032 151.474H75.9833V122.869L56.5067 151.474H51.8968V110.526H57.6591V139.365L77.3086 110.526H81.8032V151.474Z"
          fill="#001A31"/>
    <path d="M88.2957 110.526H103.047C107.158 110.526 110.365 111.891 112.67 114.621C114.975 117.312 116.128 120.51 116.128 124.214C116.128 127.919 114.975 131.117 112.67 133.808C110.365 136.499 107.158 137.844 103.047 137.844H94.1733V151.474H88.2957V110.526ZM94.1733 131.994H103.047C105.352 131.994 107.138 131.234 108.406 129.713C109.712 128.192 110.365 126.379 110.365 124.273C110.365 122.167 109.712 120.354 108.406 118.833C107.138 117.273 105.352 116.493 103.047 116.493H94.1733V131.994Z"
          fill="#001A31"/>
    <path d="M152.262 141.588C155.105 138.624 156.526 135.095 156.526 131C156.526 126.905 155.105 123.376 152.262 120.412C149.342 117.448 145.866 115.967 141.832 115.967C137.798 115.967 134.36 117.448 131.518 120.412C128.636 123.337 127.196 126.866 127.196 131C127.196 135.134 128.636 138.663 131.518 141.588C134.36 144.552 137.798 146.033 141.832 146.033C145.866 146.033 149.342 144.552 152.262 141.588ZM127.311 145.799C123.316 141.627 121.318 136.694 121.318 131C121.318 125.306 123.316 120.373 127.311 116.201C131.306 112.067 136.147 110 141.832 110C147.479 110 152.339 112.067 156.411 116.201C160.406 120.373 162.404 125.306 162.404 131C162.404 136.694 160.406 141.627 156.411 145.799C152.416 149.933 147.556 152 141.832 152C136.108 152 131.268 149.933 127.311 145.799Z"
          fill="#001A31"/>
    <path d="M168.654 110.526H174.532V151.474H168.654V110.526ZM175.627 132.521V129.538L189.86 110.526H197.005L181.619 130.883L198.618 151.474H191.012L175.627 132.521Z"
          fill="#001A31"/>
    <path d="M229.749 141.588C232.592 138.624 234.013 135.095 234.013 131C234.013 126.905 232.592 123.376 229.749 120.412C226.83 117.448 223.353 115.967 219.319 115.967C215.286 115.967 211.848 117.448 209.005 120.412C206.124 123.337 204.683 126.866 204.683 131C204.683 135.134 206.124 138.663 209.005 141.588C211.848 144.552 215.286 146.033 219.319 146.033C223.353 146.033 226.83 144.552 229.749 141.588ZM204.798 145.799C200.803 141.627 198.806 136.694 198.806 131C198.806 125.306 200.803 120.373 204.798 116.201C208.794 112.067 213.634 110 219.319 110C224.966 110 229.826 112.067 233.898 116.201C237.893 120.373 239.891 125.306 239.891 131C239.891 136.694 237.893 141.627 233.898 145.799C229.903 149.933 225.043 152 219.319 152C213.596 152 208.755 149.933 204.798 145.799Z"
          fill="#001A31"/>
    <path d="M263.357 114.212V110.351H269.177V114.212C274.556 114.446 278.762 116.181 281.797 119.418C284.832 122.655 286.349 126.457 286.349 130.825C286.349 135.231 284.812 139.072 281.739 142.348C278.704 145.585 274.517 147.34 269.177 147.613V151.474H263.357V147.671C260.591 147.554 258.095 147.008 255.866 146.033C253.638 145.02 251.814 143.733 250.392 142.173C249.009 140.613 247.953 138.877 247.223 136.967C246.493 135.017 246.128 133.008 246.128 130.942C246.128 126.535 247.646 122.713 250.68 119.476C253.715 116.201 257.941 114.446 263.357 114.212ZM269.062 119.359V142.582C272.712 142.309 275.535 141.159 277.533 139.131C279.53 137.064 280.529 134.354 280.529 131C280.529 127.646 279.511 124.936 277.475 122.869C275.477 120.802 272.673 119.632 269.062 119.359ZM251.948 130.883C251.948 134.159 252.966 136.889 255.002 139.072C257.076 141.217 259.9 142.387 263.473 142.582V119.359C259.823 119.515 256.98 120.646 254.944 122.752C252.947 124.819 251.948 127.529 251.948 130.883Z"
          fill="#001A31"/>
    <path d="M322.937 141.588C325.779 138.624 327.201 135.095 327.201 131C327.201 126.905 325.779 123.376 322.937 120.412C320.017 117.448 316.54 115.967 312.507 115.967C308.473 115.967 305.035 117.448 302.192 120.412C299.311 123.337 297.87 126.866 297.87 131C297.87 135.134 299.311 138.663 302.192 141.588C305.035 144.552 308.473 146.033 312.507 146.033C316.54 146.033 320.017 144.552 322.937 141.588ZM297.986 145.799C293.991 141.627 291.993 136.694 291.993 131C291.993 125.306 293.991 120.373 297.986 116.201C301.981 112.067 306.821 110 312.507 110C318.154 110 323.013 112.067 327.085 116.201C331.081 120.373 333.078 125.306 333.078 131C333.078 136.694 331.081 141.627 327.085 145.799C323.09 149.933 318.231 152 312.507 152C306.783 152 301.943 149.933 297.986 145.799Z"
          fill="#001A31"/>
    <path d="M339.271 110.526H354.023C358.133 110.526 361.341 111.891 363.646 114.621C365.951 117.312 367.103 120.51 367.103 124.214C367.103 127.919 365.951 131.117 363.646 133.808C361.341 136.499 358.133 137.844 354.023 137.844H345.149V151.474H339.271V110.526ZM345.149 131.994H354.023C356.328 131.994 358.114 131.234 359.382 129.713C360.688 128.192 361.341 126.379 361.341 124.273C361.341 122.167 360.688 120.354 359.382 118.833C358.114 117.273 356.328 116.493 354.023 116.493H345.149V131.994Z"
          fill="#001A31"/>
    <path d="M378.46 122.635V151.474H372.64V110.526H377.365L390.676 130.415L403.987 110.526H408.596V151.474H402.834V122.635L392.289 138.546H389.005L378.46 122.635Z"
          fill="#001A31"/>
    <path d="M431.488 119.418L425.437 135.563H437.538L431.488 119.418ZM443.531 151.474L439.67 141.12H423.305L419.387 151.474H413.106L429.298 110H433.562L449.754 151.474H443.531Z"
          fill="#001A31"/>
    <path d="M466.22 151.474H460.4V116.142H448.184V110.526H478.378V116.142H466.22V151.474Z" fill="#001A31"/>
    <path d="M488.692 110.526V127.841H505.749V110.526H511.626V151.474H505.749V133.691H488.692V151.474H482.872V110.526H488.692Z"
          fill="#001A31"/>
    <path d="M534.073 119.418L528.022 135.563H540.123L534.073 119.418ZM546.116 151.474L542.255 141.12H525.89L521.972 151.474H515.691L531.883 110H536.147L552.339 151.474H546.116Z"
          fill="#001A31"/>
    <path d="M576.137 130.708V133.515L561.443 151.474H553.894L566.629 136.089C563.325 135.504 560.752 134.042 558.908 131.702C557.102 129.323 556.199 126.613 556.199 123.571C556.199 120.061 557.352 117.02 559.657 114.446C561.962 111.833 565.189 110.526 569.337 110.526H584.031V151.474H578.211V116.493H569.337C567.033 116.493 565.227 117.195 563.921 118.599C562.653 120.003 562.019 121.66 562.019 123.571C562.019 125.521 562.653 127.198 563.921 128.602C565.227 130.006 567.033 130.708 569.337 130.708H576.137Z"
          fill="#001A31"/>
    <path d="M604.421 110.526H633.175V151.474H627.24V116.318H610.298V151.474H604.421V110.526Z" fill="#001A31"/>
    <path d="M644.846 133.925V145.565H663.573V151.474H638.968V110.526H663.516V116.435H644.846V127.958H663.112V133.925H644.846Z"
          fill="#001A31"/>
    <path d="M695.587 110.526V151.474H689.768V136.733C688 137.24 686.137 137.493 684.178 137.493C679.876 137.493 676.245 136.401 673.287 134.217C670.329 132.033 668.85 128.777 668.85 124.448V110.526H674.843V124.448C674.843 126.866 675.784 128.758 677.667 130.123C679.549 131.448 681.777 132.111 684.351 132.111C686.003 132.111 687.808 131.838 689.768 131.292V110.526H695.587Z"
          fill="#001A31"/>
    <path d="M719.603 119.418L713.553 135.563H725.654L719.603 119.418ZM731.646 151.474L727.786 141.12H711.421L707.502 151.474H701.221L717.414 110H721.678L737.87 151.474H731.646Z"
          fill="#001A31"/>
    <path d="M754.336 151.474H748.516V116.142H736.299V110.526H766.494V116.142H754.336V151.474Z" fill="#001A31"/>
    <path d="M786.92 151.474H772.168V110.526H778.046V124.156H786.92C791.03 124.156 794.238 125.501 796.543 128.192C798.848 130.883 800 134.081 800 137.786C800 141.49 798.848 144.708 796.543 147.437C794.238 150.128 791.03 151.474 786.92 151.474ZM786.92 130.006H778.046V145.624H786.92C789.225 145.624 791.011 144.844 792.279 143.284C793.585 141.724 794.238 139.872 794.238 137.727C794.238 135.621 793.585 133.808 792.279 132.287C791.011 130.766 789.225 130.006 786.92 130.006Z"
          fill="#001A31"/>
    <path fill-rule="evenodd" clip-rule="evenodd"
          d="M402.047 14.2783C410.501 22.9205 415.198 33.0656 415.949 44.7137L398.102 65.3796C400.92 60.3071 402.423 54.6709 402.423 48.659C402.423 39.2654 399.041 30.999 392.465 24.2356C385.702 17.4722 377.436 13.9026 368.042 13.9026C358.648 13.9026 350.57 17.2843 343.806 24.2356C337.043 30.999 333.661 39.0775 333.661 48.659C333.661 58.2405 337.043 66.319 343.806 73.0824C350.57 79.8458 358.461 83.4154 368.042 83.4154C375.933 83.4154 382.696 81.1609 388.708 76.4641L370.672 97.13C369.733 97.13 368.794 97.13 367.854 97.13C354.327 97.13 343.055 92.4332 333.849 82.8517C324.456 73.2703 319.759 61.81 319.759 48.659C319.759 35.5079 324.456 24.0477 333.849 14.4662C343.243 4.88472 354.515 0.187915 367.854 0.187915C381.005 4.21706e-05 392.465 4.69685 402.047 14.2783Z"
          fill="#001A31"/>
    <path fill-rule="evenodd" clip-rule="evenodd"
          d="M136.207 0H126.25L88.3 95.8149H102.954L112.16 71.9551H150.486L159.692 95.8149H174.346L136.207 0ZM117.232 59.1798L131.511 21.7932L145.789 59.1798H117.232Z"
          fill="#001A31"/>
    <path fill-rule="evenodd" clip-rule="evenodd"
          d="M13.7147 95.8149V29.308L38.326 65.9432H46.2166L70.8279 29.308V95.8149H84.3547V1.1272H73.646L42.2713 47.1559L11.0845 1.1272H0V95.8149H13.7147Z"
          fill="#001A31"/>
    <path d="M190.69 1.1272H176.976V95.8149H190.69V1.1272Z" fill="#001A31"/>
    <path fill-rule="evenodd" clip-rule="evenodd"
          d="M193.321 52.0406V45.0893L226.762 1.1272H243.482L207.411 48.2832L247.24 95.8149H229.392L193.321 52.0406Z"
          fill="#001A31"/>
    <path fill-rule="evenodd" clip-rule="evenodd"
          d="M306.232 10.7087C300.784 4.32102 293.269 1.31506 283.687 1.31506H249.119V95.8148H262.834V64.4402H283.687C293.269 64.4402 300.784 61.2463 306.232 55.0465C311.68 48.8468 314.311 41.5197 314.311 32.8776C314.311 24.2355 311.493 16.9085 306.232 10.7087ZM296.087 45.6529C293.081 49.2225 288.948 50.9134 283.5 50.9134H262.646V15.0297H283.5C288.948 15.0297 293.081 16.9085 296.087 20.478C299.093 24.0476 300.596 28.1808 300.596 33.0655C300.596 37.9502 299.281 42.0834 296.087 45.6529Z"
          fill="#001A31"/>
</svg>
