<svg width="30" height="31" viewBox="0 0 30 31" fill="none" xmlns="http://www.w3.org/2000/svg">
<path d="M22.75 15.5C22.75 11.25 19.25 7.75 15 7.75C10.7188 7.75 7.25 11.25 7.25 15.5C7.25 19.7812 10.7188 23.25 15 23.25C19.25 23.25 22.75 19.7812 22.75 15.5ZM14.0938 19.625C13.9062 19.8125 13.5625 19.8125 13.375 19.625L10.125 16.375C9.9375 16.1875 9.9375 15.8438 10.125 15.6562L10.8438 14.9688C11.0312 14.75 11.3438 14.75 11.5312 14.9688L13.75 17.1562L18.4375 12.4688C18.625 12.25 18.9375 12.25 19.125 12.4688L19.8438 13.1562C20.0312 13.3438 20.0312 13.6875 19.8438 13.875L14.0938 19.625Z" fill="#001A31"/>
</svg>
